<?xml version="1.0" standalone="no"?>
<!DOCTYPE svg PUBLIC "-//W3C//DTD SVG 20010904//EN"
 "http://www.w3.org/TR/2001/REC-SVG-20010904/DTD/svg10.dtd">
<svg version="1.0" xmlns="http://www.w3.org/2000/svg"
 width="150.000000pt" height="150.000000pt" viewBox="0 0 150.000000 150.000000"
 preserveAspectRatio="xMidYMid meet">
<metadata>
Created by potrace 1.15, written by Peter Selinger 2001-2017
</metadata>
<g transform="translate(0.000000,150.000000) scale(0.100000,-0.100000)"
fill="#000000" stroke="none">
<path d="M480 1215 l0 -35 119 0 119 0 14 -30 c16 -38 23 -38 36 0 l11 29 123
3 123 3 3 33 3 32 -275 0 -276 0 0 -35z"/>
<path d="M435 1141 c-171 -79 -166 -333 7 -405 79 -33 178 -15 236 44 17 16
32 30 34 30 2 0 3 -129 3 -287 l0 -288 33 -3 32 -3 0 236 c0 130 4 234 8 231
5 -3 71 -97 148 -210 76 -113 141 -205 144 -206 3 0 33 60 68 132 l63 133 -23
17 c-13 10 -26 18 -30 18 -4 0 -24 -36 -44 -80 -20 -44 -40 -80 -44 -80 -4 0
-45 55 -90 123 -46 67 -99 144 -119 171 -19 27 -31 47 -25 44 76 -36 92 -40
150 -36 74 5 130 37 171 100 24 36 28 51 28 118 0 67 -4 82 -28 118 -15 23
-46 54 -69 69 -36 24 -51 28 -117 28 -68 0 -81 -3 -121 -30 -32 -22 -53 -47
-75 -89 -28 -58 -29 -58 -36 -31 -33 120 -188 190 -304 136z m218 -84 c77 -45
97 -127 48 -196 -28 -38 -84 -64 -153 -69 -48 -4 -67 0 -112 22 -127 62 -128
187 -3 251 44 23 61 26 114 22 43 -3 76 -13 106 -30z m380 22 c83 -23 140
-106 118 -172 -42 -125 -236 -158 -341 -58 -37 35 -40 42 -40 91 0 49 3 56 40
91 58 55 137 72 223 48z"/>
</g>
</svg>
